<svg width="24" height="24" viewBox="0 0 24 24" fill="none" xmlns="http://www.w3.org/2000/svg">
<path fill-rule="evenodd" clip-rule="evenodd" d="M7.98269 1.99573C4.67615 1.99573 1.99567 4.67621 1.99567 7.98275V15.9654C1.99567 19.272 4.67615 21.9525 7.98269 21.9525H15.9654C19.2719 21.9525 21.9524 19.272 21.9524 15.9654V7.98275C21.9524 4.67621 19.2719 1.99573 15.9654 1.99573H7.98269ZM3.99134 7.98275C3.99134 5.77839 5.77833 3.9914 7.98269 3.9914H15.9654C18.1697 3.9914 19.9567 5.77839 19.9567 7.98275V15.9654C19.9567 18.1698 18.1697 19.9568 15.9654 19.9568H7.98269C5.77833 19.9568 3.99134 18.1698 3.99134 15.9654V7.98275ZM12.9719 7.98275C12.9719 7.43166 12.5251 6.98491 11.974 6.98491C11.4229 6.98491 10.9762 7.43166 10.9762 7.98275V10.9763H7.98269C7.4316 10.9763 6.98485 11.423 6.98485 11.9741C6.98485 12.5252 7.4316 12.9719 7.98269 12.9719H10.9762V15.9654C10.9762 16.5165 11.4229 16.9633 11.974 16.9633C12.5251 16.9633 12.9719 16.5165 12.9719 15.9654V12.9719H15.9654C16.5165 12.9719 16.9632 12.5252 16.9632 11.9741C16.9632 11.423 16.5165 10.9763 15.9654 10.9763H12.9719V7.98275Z" fill="white"/>
</svg>
