<svg width="24" height="24" viewBox="0 0 24 24" fill="none" xmlns="http://www.w3.org/2000/svg">
<mask id="path-1-outside-1_1_282" maskUnits="userSpaceOnUse" x="1.98538" y="1.99135" width="20" height="20" fill="black">
<rect fill="white" x="1.98538" y="1.99135" width="20" height="20"/>
<path fill-rule="evenodd" clip-rule="evenodd" d="M17.9388 17.2943C19.1977 15.8824 19.9627 14.0205 19.9627 11.98C19.9627 7.568 16.3861 3.99135 11.9741 3.99135C7.56203 3.99135 3.98538 7.568 3.98538 11.98C3.98538 16.392 7.56203 19.9687 11.9741 19.9687C13.4918 19.9687 14.9106 19.5455 16.119 18.8106L18.3675 19.2929L17.9388 17.2943Z"/>
</mask>
<path d="M17.9388 17.2943L16.4492 15.9662L15.775 16.7224L15.9875 17.7129L17.9388 17.2943ZM16.119 18.8106L16.5376 16.8593L15.7608 16.6927L15.0821 17.1055L16.119 18.8106ZM18.3675 19.2929L17.949 21.2442L20.966 21.8914L20.3188 18.8744L18.3675 19.2929ZM17.9671 11.98C17.9671 13.5121 17.3948 14.9057 16.4492 15.9662L19.4284 18.6224C21.0006 16.859 21.9584 14.529 21.9584 11.98H17.9671ZM11.9741 5.98702C15.2839 5.98702 17.9671 8.67018 17.9671 11.98H21.9584C21.9584 6.46582 17.4883 1.99567 11.9741 1.99567V5.98702ZM5.98106 11.98C5.98106 8.67018 8.66421 5.98702 11.9741 5.98702V1.99567C6.45985 1.99567 1.98971 6.46582 1.98971 11.98H5.98106ZM11.9741 17.973C8.66421 17.973 5.98106 15.2899 5.98106 11.98H1.98971C1.98971 17.4942 6.45985 21.9644 11.9741 21.9644V17.973ZM15.0821 17.1055C14.1773 17.6557 13.1158 17.973 11.9741 17.973V21.9644C13.8677 21.9644 15.6439 21.4353 17.1559 20.5157L15.0821 17.1055ZM15.7005 20.7619L17.949 21.2442L18.7861 17.3416L16.5376 16.8593L15.7005 20.7619ZM20.3188 18.8744L19.8901 16.8758L15.9875 17.7129L16.4162 19.7115L20.3188 18.8744Z" fill="white" mask="url(#path-1-outside-1_1_282)"/>
</svg>
