<svg width="24" height="24" viewBox="0 0 24 24" fill="none" xmlns="http://www.w3.org/2000/svg">
<path fill-rule="evenodd" clip-rule="evenodd" d="M3.99135 10.9762C3.99135 7.11859 7.11859 3.99135 10.9762 3.99135C14.8339 3.99135 17.9611 7.11859 17.9611 10.9762C17.9611 14.8339 14.8339 17.9611 10.9762 17.9611C7.11859 17.9611 3.99135 14.8339 3.99135 10.9762ZM10.9762 1.99567C6.0164 1.99567 1.99567 6.0164 1.99567 10.9762C1.99567 15.9361 6.0164 19.9568 10.9762 19.9568C13.3579 19.9568 15.5231 19.0296 17.1305 17.5166C17.1664 17.5703 17.2081 17.6214 17.2555 17.6689L21.2469 21.6602C21.6366 22.0499 22.2684 22.0499 22.6581 21.6602C23.0477 21.2705 23.0477 20.6387 22.6581 20.2491L18.6667 16.2577C18.5816 16.1726 18.4849 16.106 18.3817 16.0581C19.3753 14.613 19.9568 12.8625 19.9568 10.9762C19.9568 6.0164 15.9361 1.99567 10.9762 1.99567Z" fill="white"/>
</svg>
